<?xml version="1.0" encoding="UTF-8" ?>
<svg version="1.1" width="32" height="32" fill="#E8E8E8" xmlns="http://www.w3.org/2000/svg" shape-rendering="crispEdges">
  <rect x="9" y="6" width="6" height="2" />
  <rect x="17" y="6" width="6" height="2" />
  <rect x="7" y="8" width="2" height="2" />
  <rect x="15" y="8" width="2" height="2" />
  <rect x="23" y="8" width="2" height="2" />
  <rect x="5" y="10" width="2" height="6" />
  <rect x="25" y="10" width="2" height="6" />
  <rect x="7" y="16" width="2" height="2" />
  <rect x="23" y="16" width="2" height="2" />
  <rect x="9" y="18" width="2" height="2" />
  <rect x="21" y="18" width="2" height="2" />
  <rect x="11" y="20" width="2" height="2" />
  <rect x="19" y="20" width="2" height="2" />
  <rect x="13" y="22" width="2" height="2" />
  <rect x="17" y="22" width="2" height="2" />
  <rect x="15" y="24" width="2" height="2" />
</svg>