<svg width="32" height="32" viewBox="0 0 32 32" fill="#fbfeff" xmlns="http://www.w3.org/2000/svg">
  <path d="M20.0003 0H18.667V1.33333H20.0003V0Z" />
  <path d="M21.3333 0H20V1.33333H21.3333V0Z" />
  <path d="M22.6663 0H21.333V1.33333H22.6663V0Z" />
  <path d="M24.0003 0H22.667V1.33333H24.0003V0Z" />
  <path d="M20.0003 1.33398H18.667V2.66732H20.0003V1.33398Z" />
  <path d="M21.3333 1.33398H20V2.66732H21.3333V1.33398Z" />
  <path d="M22.6663 1.33398H21.333V2.66732H22.6663V1.33398Z" />
  <path d="M24.0003 1.33398H22.667V2.66732H24.0003V1.33398Z" />
  <path d="M17.3333 2.66602H16V3.99935H17.3333V2.66602Z" />
  <path d="M18.6663 2.66602H17.333V3.99935H18.6663V2.66602Z" />
  <path d="M25.3333 2.66602H24V3.99935H25.3333V2.66602Z" />
  <path d="M26.6663 2.66602H25.333V3.99935H26.6663V2.66602Z" />
  <path d="M17.3333 4H16V5.33333H17.3333V4Z" />
  <path d="M18.6663 4H17.333V5.33333H18.6663V4Z" />
  <path d="M25.3333 4H24V5.33333H25.3333V4Z" />
  <path d="M26.6663 4H25.333V5.33333H26.6663V4Z" />
  <path d="M14.6663 5.33398H13.333V6.66732H14.6663V5.33398Z" />
  <path d="M16.0003 5.33398H14.667V6.66732H16.0003V5.33398Z" />
  <path d="M28.0003 5.33398H26.667V6.66732H28.0003V5.33398Z" />
  <path d="M29.3333 5.33398H28V6.66732H29.3333V5.33398Z" />
  <path d="M14.6663 6.66602H13.333V7.99935H14.6663V6.66602Z" />
  <path d="M16.0003 6.66602H14.667V7.99935H16.0003V6.66602Z" />
  <path d="M28.0003 6.66602H26.667V7.99935H28.0003V6.66602Z" />
  <path d="M29.3333 6.66602H28V7.99935H29.3333V6.66602Z" />
  <path d="M12.0003 8H10.667V9.33333H12.0003V8Z" />
  <path d="M13.3333 8H12V9.33333H13.3333V8Z" />
  <path d="M30.6663 8H29.333V9.33333H30.6663V8Z" />
  <path d="M32.0003 8H30.667V9.33333H32.0003V8Z" />
  <path d="M12.0003 9.33398H10.667V10.6673H12.0003V9.33398Z" />
  <path d="M13.3333 9.33398H12V10.6673H13.3333V9.33398Z" />
  <path d="M30.6663 9.33398H29.333V10.6673H30.6663V9.33398Z" />
  <path d="M32.0003 9.33398H30.667V10.6673H32.0003V9.33398Z" />
  <path d="M9.33333 10.666H8V11.9993H9.33333V10.666Z" />
  <path d="M10.6663 10.666H9.33301V11.9993H10.6663V10.666Z" />
  <path d="M30.6663 10.666H29.333V11.9993H30.6663V10.666Z" />
  <path d="M32.0003 10.666H30.667V11.9993H32.0003V10.666Z" />
  <path d="M9.33333 12H8V13.3333H9.33333V12Z" />
  <path d="M10.6663 12H9.33301V13.3333H10.6663V12Z" />
  <path d="M30.6663 12H29.333V13.3333H30.6663V12Z" />
  <path d="M32.0003 12H30.667V13.3333H32.0003V12Z" />
  <path d="M6.66634 13.334H5.33301V14.6673H6.66634V13.334Z" />
  <path d="M8.00033 13.334H6.66699V14.6673H8.00033V13.334Z" />
  <path d="M28.0003 13.334H26.667V14.6673H28.0003V13.334Z" />
  <path d="M29.3333 13.334H28V14.6673H29.3333V13.334Z" />
  <path d="M6.66634 14.666H5.33301V15.9993H6.66634V14.666Z" />
  <path d="M8.00033 14.666H6.66699V15.9993H8.00033V14.666Z" />
  <path d="M28.0003 14.666H26.667V15.9993H28.0003V14.666Z" />
  <path d="M29.3333 14.666H28V15.9993H29.3333V14.666Z" />
  <path d="M4.00033 16H2.66699V17.3333H4.00033V16Z" />
  <path d="M5.33333 16H4V17.3333H5.33333V16Z" />
  <path d="M25.3333 16H24V17.3333H25.3333V16Z" />
  <path d="M26.6663 16H25.333V17.3333H26.6663V16Z" />
  <path d="M4.00033 17.334H2.66699V18.6673H4.00033V17.334Z" />
  <path d="M5.33333 17.334H4V18.6673H5.33333V17.334Z" />
  <path d="M25.3333 17.334H24V18.6673H25.3333V17.334Z" />
  <path d="M26.6663 17.334H25.333V18.6673H26.6663V17.334Z" />
  <path d="M1.33333 18.666H0V19.9993H1.33333V18.666Z" />
  <path d="M2.66634 18.666H1.33301V19.9993H2.66634V18.666Z" />
  <path d="M22.6663 18.666H21.333V19.9993H22.6663V18.666Z" />
  <path d="M24.0003 18.666H22.667V19.9993H24.0003V18.666Z" />
  <path d="M1.33333 20H0V21.3333H1.33333V20Z" />
  <path d="M2.66634 20H1.33301V21.3333H2.66634V20Z" />
  <path d="M22.6663 20H21.333V21.3333H22.6663V20Z" />
  <path d="M24.0003 20H22.667V21.3333H24.0003V20Z" />
  <path d="M1.33333 21.334H0V22.6673H1.33333V21.334Z" />
  <path d="M2.66634 21.334H1.33301V22.6673H2.66634V21.334Z" />
  <path d="M4.00033 21.334H2.66699V22.6673H4.00033V21.334Z" />
  <path d="M5.33333 21.334H4V22.6673H5.33333V21.334Z" />
  <path d="M20.0003 21.334H18.667V22.6673H20.0003V21.334Z" />
  <path d="M21.3333 21.334H20V22.6673H21.3333V21.334Z" />
  <path d="M1.33333 22.666H0V23.9993H1.33333V22.666Z" />
  <path d="M2.66634 22.666H1.33301V23.9993H2.66634V22.666Z" />
  <path d="M4.00033 22.666H2.66699V23.9993H4.00033V22.666Z" />
  <path d="M5.33333 22.666H4V23.9993H5.33333V22.666Z" />
  <path d="M20.0003 22.666H18.667V23.9993H20.0003V22.666Z" />
  <path d="M21.3333 22.666H20V23.9993H21.3333V22.666Z" />
  <path d="M1.33333 24H0V25.3333H1.33333V24Z" />
  <path d="M2.66634 24H1.33301V25.3333H2.66634V24Z" />
  <path d="M4.00033 24H2.66699V25.3333H4.00033V24Z" />
  <path d="M5.33333 24H4V25.3333H5.33333V24Z" />
  <path d="M6.66634 24H5.33301V25.3333H6.66634V24Z" />
  <path d="M8.00033 24H6.66699V25.3333H8.00033V24Z" />
  <path d="M17.3333 24H16V25.3333H17.3333V24Z" />
  <path d="M18.6663 24H17.333V25.3333H18.6663V24Z" />
  <path d="M1.33333 25.334H0V26.6673H1.33333V25.334Z" />
  <path d="M2.66634 25.334H1.33301V26.6673H2.66634V25.334Z" />
  <path d="M4.00033 25.334H2.66699V26.6673H4.00033V25.334Z" />
  <path d="M5.33333 25.334H4V26.6673H5.33333V25.334Z" />
  <path d="M6.66634 25.334H5.33301V26.6673H6.66634V25.334Z" />
  <path d="M8.00033 25.334H6.66699V26.6673H8.00033V25.334Z" />
  <path d="M17.3333 25.334H16V26.6673H17.3333V25.334Z" />
  <path d="M18.6663 25.334H17.333V26.6673H18.6663V25.334Z" />
  <path d="M1.33333 26.666H0V27.9993H1.33333V26.666Z" />
  <path d="M2.66634 26.666H1.33301V27.9993H2.66634V26.666Z" />
  <path d="M4.00033 26.666H2.66699V27.9993H4.00033V26.666Z" />
  <path d="M5.33333 26.666H4V27.9993H5.33333V26.666Z" />
  <path d="M6.66634 26.666H5.33301V27.9993H6.66634V26.666Z" />
  <path d="M8.00033 26.666H6.66699V27.9993H8.00033V26.666Z" />
  <path d="M9.33333 26.666H8V27.9993H9.33333V26.666Z" />
  <path d="M10.6663 26.666H9.33301V27.9993H10.6663V26.666Z" />
  <path d="M14.6663 26.666H13.333V27.9993H14.6663V26.666Z" />
  <path d="M16.0003 26.666H14.667V27.9993H16.0003V26.666Z" />
  <path d="M1.33333 28H0V29.3333H1.33333V28Z" />
  <path d="M2.66634 28H1.33301V29.3333H2.66634V28Z" />
  <path d="M4.00033 28H2.66699V29.3333H4.00033V28Z" />
  <path d="M5.33333 28H4V29.3333H5.33333V28Z" />
  <path d="M6.66634 28H5.33301V29.3333H6.66634V28Z" />
  <path d="M8.00033 28H6.66699V29.3333H8.00033V28Z" />
  <path d="M9.33333 28H8V29.3333H9.33333V28Z" />
  <path d="M10.6663 28H9.33301V29.3333H10.6663V28Z" />
  <path d="M14.6663 28H13.333V29.3333H14.6663V28Z" />
  <path d="M16.0003 28H14.667V29.3333H16.0003V28Z" />
  <path d="M1.33333 29.334H0V30.6673H1.33333V29.334Z" />
  <path d="M2.66634 29.334H1.33301V30.6673H2.66634V29.334Z" />
  <path d="M4.00033 29.334H2.66699V30.6673H4.00033V29.334Z" />
  <path d="M5.33333 29.334H4V30.6673H5.33333V29.334Z" />
  <path d="M6.66634 29.334H5.33301V30.6673H6.66634V29.334Z" />
  <path d="M8.00033 29.334H6.66699V30.6673H8.00033V29.334Z" />
  <path d="M9.33333 29.334H8V30.6673H9.33333V29.334Z" />
  <path d="M10.6663 29.334H9.33301V30.6673H10.6663V29.334Z" />
  <path d="M12.0003 29.334H10.667V30.6673H12.0003V29.334Z" />
  <path d="M13.3333 29.334H12V30.6673H13.3333V29.334Z" />
  <path d="M20.0003 29.334H18.667V30.6673H20.0003V29.334Z" />
  <path d="M21.3333 29.334H20V30.6673H21.3333V29.334Z" />
  <path d="M22.6663 29.334H21.333V30.6673H22.6663V29.334Z" />
  <path d="M24.0003 29.334H22.667V30.6673H24.0003V29.334Z" />
  <path d="M25.3333 29.334H24V30.6673H25.3333V29.334Z" />
  <path d="M26.6663 29.334H25.333V30.6673H26.6663V29.334Z" />
  <path d="M28.0003 29.334H26.667V30.6673H28.0003V29.334Z" />
  <path d="M29.3333 29.334H28V30.6673H29.3333V29.334Z" />
  <path d="M30.6663 29.334H29.333V30.6673H30.6663V29.334Z" />
  <path d="M32.0003 29.334H30.667V30.6673H32.0003V29.334Z" />
  <path d="M1.33333 30.666H0V31.9993H1.33333V30.666Z" />
  <path d="M2.66634 30.666H1.33301V31.9993H2.66634V30.666Z" />
  <path d="M4.00033 30.666H2.66699V31.9993H4.00033V30.666Z" />
  <path d="M5.33333 30.666H4V31.9993H5.33333V30.666Z" />
  <path d="M6.66634 30.666H5.33301V31.9993H6.66634V30.666Z" />
  <path d="M8.00033 30.666H6.66699V31.9993H8.00033V30.666Z" />
  <path d="M9.33333 30.666H8V31.9993H9.33333V30.666Z" />
  <path d="M10.6663 30.666H9.33301V31.9993H10.6663V30.666Z" />
  <path d="M12.0003 30.666H10.667V31.9993H12.0003V30.666Z" />
  <path d="M13.3333 30.666H12V31.9993H13.3333V30.666Z" />
  <path d="M20.0003 30.666H18.667V31.9993H20.0003V30.666Z" />
  <path d="M21.3333 30.666H20V31.9993H21.3333V30.666Z" />
  <path d="M22.6663 30.666H21.333V31.9993H22.6663V30.666Z" />
  <path d="M24.0003 30.666H22.667V31.9993H24.0003V30.666Z" />
  <path d="M25.3333 30.666H24V31.9993H25.3333V30.666Z" />
  <path d="M26.6663 30.666H25.333V31.9993H26.6663V30.666Z" />
  <path d="M28.0003 30.666H26.667V31.9993H28.0003V30.666Z" />
  <path d="M29.3333 30.666H28V31.9993H29.3333V30.666Z" />
  <path d="M30.6663 30.666H29.333V31.9993H30.6663V30.666Z" />
  <path d="M32.0003 30.666H30.667V31.9993H32.0003V30.666Z" />
</svg>