<svg width="32" height="32" viewBox="0 0 32 32" fill="#fbfeff" xmlns="http://www.w3.org/2000/svg">
  <path d="M23.2724 0H20.3633V2.90909H23.2724V0Z" />
  <path d="M26.1816 0H23.2725V2.90909H26.1816V0Z" />
  <path d="M29.0907 0H26.1816V2.90909H29.0907V0Z" />
  <path d="M20.3632 2.9082H17.4541V5.81729H20.3632V2.9082Z" />
  <path d="M29.0907 2.9082H26.1816V5.81729H29.0907V2.9082Z" />
  <path d="M17.455 5.81836H14.5459V8.72745H17.455V5.81836Z" />
  <path d="M29.0907 5.81836H26.1816V8.72745H29.0907V5.81836Z" />
  <path d="M5.81827 8.72656H2.90918V11.6357H5.81827V8.72656Z" />
  <path d="M8.72745 8.72656H5.81836V11.6357H8.72745V8.72656Z" />
  <path d="M11.6366 8.72656H8.72754V11.6357H11.6366V8.72656Z" />
  <path d="M17.455 8.72656H14.5459V11.6357H17.455V8.72656Z" />
  <path d="M26.1816 8.72656H23.2725V11.6357H26.1816V8.72656Z" />
  <path d="M5.81827 11.6367H2.90918V14.5458H5.81827V11.6367Z" />
  <path d="M14.5458 11.6367H11.6367V14.5458H14.5458V11.6367Z" />
  <path d="M17.455 11.6367H14.5459V14.5458H17.455V11.6367Z" />
  <path d="M20.3632 11.6367H17.4541V14.5458H20.3632V11.6367Z" />
  <path d="M23.2724 11.6367H20.3633V14.5458H23.2724V11.6367Z" />
  <path d="M5.81827 14.5449H2.90918V17.454H5.81827V14.5449Z" />
  <path d="M17.455 14.5449H14.5459V17.454H17.455V14.5449Z" />
  <path d="M8.72745 17.4551H5.81836V20.3642H8.72745V17.4551Z" />
  <path d="M17.455 17.4551H14.5459V20.3642H17.455V17.4551Z" />
  <path d="M11.6366 20.3633H8.72754V23.2724H11.6366V20.3633Z" />
  <path d="M14.5458 20.3633H11.6367V23.2724H14.5458V20.3633Z" />
  <path d="M17.455 20.3633H14.5459V23.2724H17.455V20.3633Z" />
  <path d="M17.455 23.2734H14.5459V26.1825H17.455V23.2734Z" />
  <path d="M17.455 26.1816H14.5459V29.0907H17.455V26.1816Z" />
  <path d="M11.6366 29.0918H8.72754V32.0009H11.6366V29.0918Z" />
  <path d="M14.5458 29.0918H11.6367V32.0009H14.5458V29.0918Z" />
  <path d="M17.455 29.0918H14.5459V32.0009H17.455V29.0918Z" />
  <path d="M20.3632 29.0918H17.4541V32.0009H20.3632V29.0918Z" />
  <path d="M23.2724 29.0918H20.3633V32.0009H23.2724V29.0918Z" />
</svg>