<?xml version="1.0" encoding="UTF-8" ?>
<svg version="1.1" width="24" height="24" fill="#fbfeff" xmlns="http://www.w3.org/2000/svg" shape-rendering="crispEdges">
  <rect x="9" y="0" width="2" height="2" />
  <rect x="11" y="2" width="2" height="6" />
  <rect x="5" y="4" width="6" height="2" />
  <rect x="13" y="4" width="2" height="2" />
  <rect x="17" y="4" width="2" height="2" />
  <rect x="3" y="6" width="2" height="2" />
  <rect x="19" y="6" width="2" height="2" />
  <rect x="1" y="8" width="2" height="8" />
  <rect x="9" y="8" width="2" height="2" />
  <rect x="21" y="8" width="2" height="8" />
  <rect x="13" y="14" width="2" height="2" />
  <rect x="3" y="16" width="2" height="2" />
  <rect x="11" y="16" width="2" height="6" />
  <rect x="19" y="16" width="2" height="2" />
  <rect x="5" y="18" width="2" height="2" />
  <rect x="9" y="18" width="2" height="2" />
  <rect x="13" y="18" width="6" height="2" />
  <rect x="13" y="22" width="2" height="2" />
</svg>