<?xml version="1.0" encoding="UTF-8" ?>
<svg version="1.1" width="24" height="24" xmlns="http://www.w3.org/2000/svg" shape-rendering="crispEdges">
<rect x="2" y="0" width="16" height="2" fill="#E8E8E8" />
<rect x="2" y="2" width="2" height="22" fill="#E8E8E8" />
<rect x="6" y="2" width="2" height="6" fill="#E8E8E8" />
<rect x="11" y="2" width="2" height="2" fill="#E8E8E8" />
<rect x="14" y="2" width="2" height="6" fill="#E8E8E8" />
<rect x="18" y="2" width="2" height="4" fill="#E8E8E8" />
<rect x="8" y="6" width="6" height="2" fill="#E8E8E8" />
<rect x="20" y="6" width="2" height="18" fill="#E8E8E8" />
<rect x="6" y="13" width="12" height="2" fill="#E8E8E8" />
<rect x="6" y="15" width="2" height="9" fill="#E8E8E8" />
<rect x="16" y="15" width="2" height="9" fill="#E8E8E8" />
<rect x="9" y="16" width="6" height="1" fill="#E8E8E8" />
<rect x="9" y="18" width="6" height="1" fill="#E8E8E8" />
<rect x="9" y="20" width="6" height="1" fill="#E8E8E8" />
<rect x="4" y="22" width="2" height="2" fill="#E8E8E8" />
<rect x="8" y="22" width="8" height="2" fill="#E8E8E8" />
<rect x="18" y="22" width="2" height="2" fill="#E8E8E8" />
</svg>