<svg width="32" height="32" viewBox="0 0 32 32" fill="#E8E8E8" xmlns="http://www.w3.org/2000/svg">
  <path d="M14.7271 0H12.1816V2.46154H14.7271V0Z" />
  <path d="M17.273 0H14.7275V2.46154H17.273V0Z" />
  <path d="M19.8169 0H17.2715V2.46154H19.8169V0Z" />
  <path d="M7.09038 2.45898H4.54492V4.92052H7.09038V2.45898Z" />
  <path d="M9.6353 2.45898H7.08984V4.92052H9.6353V2.45898Z" />
  <path d="M12.1822 2.45898H9.63672V4.92052H12.1822V2.45898Z" />
  <path d="M14.7271 2.45898H12.1816V4.92052H14.7271V2.45898Z" />
  <path d="M17.273 2.45898H14.7275V4.92052H17.273V2.45898Z" />
  <path d="M19.8169 2.45898H17.2715V4.92052H19.8169V2.45898Z" />
  <path d="M22.3628 2.45898H19.8174V4.92052H22.3628V2.45898Z" />
  <path d="M24.9078 2.45898H22.3623V4.92052H24.9078V2.45898Z" />
  <path d="M27.4546 2.45898H24.9092V4.92052H27.4546V2.45898Z" />
  <path d="M4.54545 4.91992H2V7.38146H4.54545V4.91992Z" />
  <path d="M29.9996 4.91992H27.4541V7.38146H29.9996V4.91992Z" />
  <path d="M4.54545 7.38281H2V9.84435H4.54545V7.38281Z" />
  <path d="M7.09038 7.38281H4.54492V9.84435H7.09038V7.38281Z" />
  <path d="M9.6353 7.38281H7.08984V9.84435H9.6353V7.38281Z" />
  <path d="M12.1822 7.38281H9.63672V9.84435H12.1822V7.38281Z" />
  <path d="M14.7271 7.38281H12.1816V9.84435H14.7271V7.38281Z" />
  <path d="M17.273 7.38281H14.7275V9.84435H17.273V7.38281Z" />
  <path d="M19.8169 7.38281H17.2715V9.84435H19.8169V7.38281Z" />
  <path d="M22.3628 7.38281H19.8174V9.84435H22.3628V7.38281Z" />
  <path d="M24.9078 7.38281H22.3623V9.84435H24.9078V7.38281Z" />
  <path d="M27.4546 7.38281H24.9092V9.84435H27.4546V7.38281Z" />
  <path d="M29.9996 7.38281H27.4541V9.84435H29.9996V7.38281Z" />
  <path d="M7.09038 9.84375H4.54492V12.3053H7.09038V9.84375Z" />
  <path d="M27.4546 9.84375H24.9092V12.3053H27.4546V9.84375Z" />
  <path d="M7.09038 12.3047H4.54492V14.7662H7.09038V12.3047Z" />
  <path d="M12.1822 12.3047H9.63672V14.7662H12.1822V12.3047Z" />
  <path d="M17.273 12.3047H14.7275V14.7662H17.273V12.3047Z" />
  <path d="M22.3628 12.3047H19.8174V14.7662H22.3628V12.3047Z" />
  <path d="M27.4546 12.3047H24.9092V14.7662H27.4546V12.3047Z" />
  <path d="M7.09038 14.7656H4.54492V17.2272H7.09038V14.7656Z" />
  <path d="M12.1822 14.7656H9.63672V17.2272H12.1822V14.7656Z" />
  <path d="M17.273 14.7656H14.7275V17.2272H17.273V14.7656Z" />
  <path d="M22.3628 14.7656H19.8174V17.2272H22.3628V14.7656Z" />
  <path d="M27.4546 14.7656H24.9092V17.2272H27.4546V14.7656Z" />
  <path d="M7.09038 17.2305H4.54492V19.692H7.09038V17.2305Z" />
  <path d="M12.1822 17.2305H9.63672V19.692H12.1822V17.2305Z" />
  <path d="M17.273 17.2305H14.7275V19.692H17.273V17.2305Z" />
  <path d="M22.3628 17.2305H19.8174V19.692H22.3628V17.2305Z" />
  <path d="M27.4546 17.2305H24.9092V19.692H27.4546V17.2305Z" />
  <path d="M7.09038 19.6914H4.54492V22.1529H7.09038V19.6914Z" />
  <path d="M12.1822 19.6914H9.63672V22.1529H12.1822V19.6914Z" />
  <path d="M17.273 19.6914H14.7275V22.1529H17.273V19.6914Z" />
  <path d="M22.3628 19.6914H19.8174V22.1529H22.3628V19.6914Z" />
  <path d="M27.4546 19.6914H24.9092V22.1529H27.4546V19.6914Z" />
  <path d="M7.09038 22.1543H4.54492V24.6158H7.09038V22.1543Z" />
  <path d="M12.1822 22.1543H9.63672V24.6158H12.1822V22.1543Z" />
  <path d="M17.273 22.1543H14.7275V24.6158H17.273V22.1543Z" />
  <path d="M22.3628 22.1543H19.8174V24.6158H22.3628V22.1543Z" />
  <path d="M27.4546 22.1543H24.9092V24.6158H27.4546V22.1543Z" />
  <path d="M7.09038 24.6133H4.54492V27.0748H7.09038V24.6133Z" />
  <path d="M12.1822 24.6133H9.63672V27.0748H12.1822V24.6133Z" />
  <path d="M17.273 24.6133H14.7275V27.0748H17.273V24.6133Z" />
  <path d="M22.3628 24.6133H19.8174V27.0748H22.3628V24.6133Z" />
  <path d="M27.4546 24.6133H24.9092V27.0748H27.4546V24.6133Z" />
  <path d="M7.09038 27.0762H4.54492V29.5377H7.09038V27.0762Z" />
  <path d="M27.4546 27.0762H24.9092V29.5377H27.4546V27.0762Z" />
  <path d="M9.6353 29.5371H7.08984V31.9986H9.6353V29.5371Z" />
  <path d="M12.1822 29.5371H9.63672V31.9986H12.1822V29.5371Z" />
  <path d="M14.7271 29.5371H12.1816V31.9986H14.7271V29.5371Z" />
  <path d="M17.273 29.5371H14.7275V31.9986H17.273V29.5371Z" />
  <path d="M19.8169 29.5371H17.2715V31.9986H19.8169V29.5371Z" />
  <path d="M22.3628 29.5371H19.8174V31.9986H22.3628V29.5371Z" />
  <path d="M24.9078 29.5371H22.3623V31.9986H24.9078V29.5371Z" />
</svg>