<svg width="32" height="32" viewBox="0 0 32 32" fill="#E8E8E8" xmlns="http://www.w3.org/2000/svg">
  <path d="M11.6366 0H8.72754V2.90909H11.6366V0Z"/>
  <path d="M14.5448 0H11.6357V2.90909H14.5448V0Z"/>
  <path d="M17.455 0H14.5459V2.90909H17.455V0Z"/>
  <path d="M20.3632 0H17.4541V2.90909H20.3632V0Z"/>
  <path d="M23.2733 0H20.3643V2.90909H23.2733V0Z"/>
  <path d="M8.72745 2.9082H5.81836V5.81729H8.72745V2.9082Z"/>
  <path d="M26.1816 2.9082H23.2725V5.81729H26.1816V2.9082Z"/>
  <path d="M5.81827 5.81836H2.90918V8.72745H5.81827V5.81836Z"/>
  <path d="M17.455 5.81836H14.5459V8.72745H17.455V5.81836Z"/>
  <path d="M29.0907 5.81836H26.1816V8.72745H29.0907V5.81836Z"/>
  <path d="M2.90909 8.72852H0V11.6376H2.90909V8.72852Z"/>
  <path d="M17.455 8.72852H14.5459V11.6376H17.455V8.72852Z"/>
  <path d="M31.9999 8.72852H29.0908V11.6376H31.9999V8.72852Z"/>
  <path d="M2.90909 11.6367H0V14.5458H2.90909V11.6367Z"/>
  <path d="M17.455 11.6367H14.5459V14.5458H17.455V11.6367Z"/>
  <path d="M31.9999 11.6367H29.0908V14.5458H31.9999V11.6367Z"/>
  <path d="M2.90909 14.5449H0V17.454H2.90909V14.5449Z"/>
  <path d="M17.455 14.5449H14.5459V17.454H17.455V14.5449Z"/>
  <path d="M31.9999 14.5449H29.0908V17.454H31.9999V14.5449Z"/>
  <path d="M2.90909 17.4551H0V20.3642H2.90909V17.4551Z"/>
  <path d="M20.3632 17.4551H17.4541V20.3642H20.3632V17.4551Z"/>
  <path d="M31.9999 17.4551H29.0908V20.3642H31.9999V17.4551Z"/>
  <path d="M2.90909 20.3633H0V23.2724H2.90909V20.3633Z"/>
  <path d="M23.2733 20.3633H20.3643V23.2724H23.2733V20.3633Z"/>
  <path d="M31.9999 20.3633H29.0908V23.2724H31.9999V20.3633Z"/>
  <path d="M5.81827 23.2715H2.90918V26.1806H5.81827V23.2715Z"/>
  <path d="M29.0907 23.2715H26.1816V26.1806H29.0907V23.2715Z"/>
  <path d="M8.72745 26.1816H5.81836V29.0907H8.72745V26.1816Z"/>
  <path d="M26.1816 26.1816H23.2725V29.0907H26.1816V26.1816Z"/>
  <path d="M11.6366 29.0918H8.72754V32.0009H11.6366V29.0918Z"/>
  <path d="M14.5448 29.0918H11.6357V32.0009H14.5448V29.0918Z"/>
  <path d="M17.455 29.0918H14.5459V32.0009H17.455V29.0918Z"/>
  <path d="M20.3632 29.0918H17.4541V32.0009H20.3632V29.0918Z"/>
  <path d="M23.2733 29.0918H20.3643V32.0009H23.2733V29.0918Z"/>
</svg>